<svg xmlns="http://www.w3.org/2000/svg" viewBox="0 0 800 600" width="800" height="600">
  <defs>
    <linearGradient id="trSkyGrad" x1="0" y1="0" x2="0" y2="1">
      <stop offset="0%" stop-color="#78B8E0"/>
      <stop offset="40%" stop-color="#A0D0E8"/>
      <stop offset="100%" stop-color="#D0E8E8"/>
    </linearGradient>
    <radialGradient id="trSunGlow" cx="0.7" cy="0.1" r="0.4">
      <stop offset="0%" stop-color="#FFF8D0" stop-opacity="0.7"/>
      <stop offset="50%" stop-color="#FFF3C0" stop-opacity="0.25"/>
      <stop offset="100%" stop-color="#FFF3C0" stop-opacity="0"/>
    </radialGradient>
    <linearGradient id="trGrassFar" x1="0" y1="0" x2="0" y2="1">
      <stop offset="0%" stop-color="#5A9A48"/>
      <stop offset="100%" stop-color="#4A8A38"/>
    </linearGradient>
    <linearGradient id="trGrassMid" x1="0" y1="0" x2="0" y2="1">
      <stop offset="0%" stop-color="#408A30"/>
      <stop offset="100%" stop-color="#307A22"/>
    </linearGradient>
    <linearGradient id="trGrassNear" x1="0" y1="0" x2="0" y2="1">
      <stop offset="0%" stop-color="#307A22"/>
      <stop offset="100%" stop-color="#256A18"/>
    </linearGradient>
    <linearGradient id="trPalmTrunk" x1="0" y1="0" x2="1" y2="0">
      <stop offset="0%" stop-color="#7A5E3A"/>
      <stop offset="50%" stop-color="#8B6E48"/>
      <stop offset="100%" stop-color="#7A5E3A"/>
    </linearGradient>
    <linearGradient id="trPalmLeaf" x1="0" y1="0" x2="0" y2="1">
      <stop offset="0%" stop-color="#3A8A28"/>
      <stop offset="100%" stop-color="#2A7A18"/>
    </linearGradient>
    <linearGradient id="trPalmLeafLight" x1="0" y1="0" x2="0" y2="1">
      <stop offset="0%" stop-color="#4A9A38"/>
      <stop offset="100%" stop-color="#3A8A28"/>
    </linearGradient>
    <linearGradient id="trBananaLeaf" x1="0" y1="0" x2="0" y2="1">
      <stop offset="0%" stop-color="#4A9A30"/>
      <stop offset="100%" stop-color="#388A20"/>
    </linearGradient>
    <linearGradient id="trFlowerRed" x1="0" y1="0" x2="0" y2="1">
      <stop offset="0%" stop-color="#E85040"/>
      <stop offset="100%" stop-color="#D04030"/>
    </linearGradient>
    <linearGradient id="trFlowerYellow" x1="0" y1="0" x2="0" y2="1">
      <stop offset="0%" stop-color="#F0D040"/>
      <stop offset="100%" stop-color="#E8C030"/>
    </linearGradient>
    <linearGradient id="trFlowerPurple" x1="0" y1="0" x2="0" y2="1">
      <stop offset="0%" stop-color="#A068C0"/>
      <stop offset="100%" stop-color="#8858A8"/>
    </linearGradient>
    <linearGradient id="trFlowerOrange" x1="0" y1="0" x2="0" y2="1">
      <stop offset="0%" stop-color="#F09030"/>
      <stop offset="100%" stop-color="#E08020"/>
    </linearGradient>
    <linearGradient id="trFenceGrad" x1="0" y1="0" x2="0" y2="1">
      <stop offset="0%" stop-color="#8B7050"/>
      <stop offset="100%" stop-color="#7A6040"/>
    </linearGradient>
    <linearGradient id="trPathGrad" x1="0" y1="0" x2="0" y2="1">
      <stop offset="0%" stop-color="#D4B888"/>
      <stop offset="100%" stop-color="#C4A878"/>
    </linearGradient>
    <linearGradient id="trHutRoof" x1="0" y1="0" x2="0" y2="1">
      <stop offset="0%" stop-color="#B09060"/>
      <stop offset="100%" stop-color="#A08050"/>
    </linearGradient>
    <linearGradient id="trHutWall" x1="0" y1="0" x2="0" y2="1">
      <stop offset="0%" stop-color="#F0E8D8"/>
      <stop offset="100%" stop-color="#E8DCC8"/>
    </linearGradient>
    <filter id="trSoftShadow" x="-10%" y="-10%" width="120%" height="120%">
      <feGaussianBlur in="SourceAlpha" stdDeviation="3" result="blur"/>
      <feOffset dx="2" dy="3" result="offset"/>
      <feFlood flood-color="#1A3A10" flood-opacity="0.12" result="color"/>
      <feComposite in="color" in2="offset" operator="in" result="shadow"/>
      <feMerge>
        <feMergeNode in="shadow"/>
        <feMergeNode in="SourceGraphic"/>
      </feMerge>
    </filter>
    <filter id="trHaze">
      <feGaussianBlur stdDeviation="1.5"/>
    </filter>
  </defs>

  <!-- ============ SKY ============ -->
  <rect width="800" height="600" fill="url(#trSkyGrad)"/>
  <rect width="800" height="600" fill="url(#trSunGlow)"/>

  <!-- ============ CLOUDS (fluffy tropical) ============ -->
  <g opacity="0.6">
    <ellipse cx="180" cy="65" rx="80" ry="28" fill="#FFFFFF" opacity="0.7"/>
    <ellipse cx="210" cy="58" rx="55" ry="22" fill="#FFFFFF" opacity="0.8"/>
    <ellipse cx="150" cy="72" rx="45" ry="18" fill="#FFFFFF" opacity="0.6"/>
  </g>
  <g opacity="0.5">
    <ellipse cx="520" cy="55" rx="70" ry="25" fill="#FFFFFF" opacity="0.6"/>
    <ellipse cx="545" cy="50" rx="45" ry="20" fill="#FFFFFF" opacity="0.7"/>
  </g>
  <g opacity="0.35">
    <ellipse cx="380" cy="85" rx="50" ry="16" fill="#FFFFFF" opacity="0.5"/>
    <ellipse cx="400" cy="80" rx="35" ry="13" fill="#FFFFFF" opacity="0.6"/>
  </g>

  <!-- ============ DISTANT HILLS (lush, tropical) ============ -->
  <path d="M0,290 Q100,260 220,275 Q360,240 500,260 Q640,245 800,275 L800,340 L0,340 Z"
        fill="#5A9A48" opacity="0.35" filter="url(#trHaze)"/>
  <path d="M0,315 Q160,290 310,305 Q480,280 640,300 Q740,290 800,310 L800,360 L0,360 Z"
        fill="#4A8A38" opacity="0.4" filter="url(#trHaze)"/>

  <!-- ============ FAR GRASS ============ -->
  <path d="M0,335 Q200,318 400,326 Q600,312 800,328 L800,400 L0,400 Z" fill="url(#trGrassFar)"/>

  <!-- ============ TIKI HUT / GAZEBO (center-right) ============ -->
  <g filter="url(#trSoftShadow)" transform="translate(480, 260)">
    <!-- Shadow -->
    <ellipse cx="50" cy="118" rx="65" ry="10" fill="#1A3A10" opacity="0.08"/>
    <!-- Posts -->
    <rect x="10" y="45" width="6" height="73" rx="1" fill="#7A5E3A"/>
    <rect x="84" y="45" width="6" height="73" rx="1" fill="#7A5E3A"/>
    <!-- Cross beam -->
    <rect x="5" y="45" width="90" height="5" rx="1" fill="#8B6E48"/>
    <!-- Thatched roof -->
    <path d="M-10,48 L50,10 L110,48 Z" fill="url(#trHutRoof)"/>
    <!-- Thatch texture -->
    <g opacity="0.2">
      <line x1="10" y1="42" x2="50" y2="14" stroke="#8A7040" stroke-width="0.8"/>
      <line x1="25" y1="45" x2="50" y2="18" stroke="#8A7040" stroke-width="0.8"/>
      <line x1="75" y1="45" x2="50" y2="18" stroke="#8A7040" stroke-width="0.8"/>
      <line x1="90" y1="42" x2="50" y2="14" stroke="#8A7040" stroke-width="0.8"/>
    </g>
    <!-- Roof overhang fringe -->
    <g opacity="0.3">
      <path d="M-8,48 Q-5,55 -8,58" fill="none" stroke="#A08050" stroke-width="1"/>
      <path d="M2,48 Q5,55 2,58" fill="none" stroke="#A08050" stroke-width="1"/>
      <path d="M98,48 Q95,55 98,58" fill="none" stroke="#A08050" stroke-width="1"/>
      <path d="M108,48 Q105,55 108,58" fill="none" stroke="#A08050" stroke-width="1"/>
    </g>
    <!-- Floor/deck -->
    <rect x="5" y="112" width="90" height="6" rx="1" fill="#8B6E48" opacity="0.5"/>
  </g>

  <!-- ============ TALL PALM TREE (left) ============ -->
  <g filter="url(#trSoftShadow)" transform="translate(100, 120)">
    <!-- Ground shadow -->
    <ellipse cx="10" cy="340" rx="50" ry="8" fill="#1A3A10" opacity="0.08"/>
    <!-- Trunk (curved, organic) -->
    <path d="M10,120 Q8,160 12,200 Q16,260 14,340" fill="none" stroke="url(#trPalmTrunk)" stroke-width="14" stroke-linecap="round"/>
    <!-- Trunk rings -->
    <g opacity="0.15">
      <line x1="4" y1="150" x2="20" y2="150" stroke="#5A4020" stroke-width="1"/>
      <line x1="3" y1="175" x2="21" y2="175" stroke="#5A4020" stroke-width="1"/>
      <line x1="5" y1="200" x2="22" y2="200" stroke="#5A4020" stroke-width="1"/>
      <line x1="8" y1="225" x2="24" y2="225" stroke="#5A4020" stroke-width="1"/>
      <line x1="10" y1="250" x2="24" y2="250" stroke="#5A4020" stroke-width="1"/>
      <line x1="10" y1="275" x2="22" y2="275" stroke="#5A4020" stroke-width="1"/>
      <line x1="8" y1="300" x2="20" y2="300" stroke="#5A4020" stroke-width="1"/>
    </g>
    <!-- Coconut cluster -->
    <circle cx="8" cy="118" r="4" fill="#8B6E48" opacity="0.6"/>
    <circle cx="14" cy="115" r="3.5" fill="#7A5E3A" opacity="0.5"/>
    <circle cx="4" cy="114" r="3" fill="#8B6E48" opacity="0.5"/>
    <!-- Palm fronds -->
    <path d="M10,110 Q-30,70 -80,60" fill="none" stroke="url(#trPalmLeaf)" stroke-width="3"/>
    <path d="M10,108 Q40,50 90,30" fill="none" stroke="url(#trPalmLeaf)" stroke-width="3"/>
    <path d="M10,112 Q-20,90 -60,95" fill="none" stroke="url(#trPalmLeafLight)" stroke-width="2.5"/>
    <path d="M10,110 Q50,80 80,75" fill="none" stroke="url(#trPalmLeafLight)" stroke-width="2.5"/>
    <path d="M10,115 Q-10,100 -40,110" fill="none" stroke="url(#trPalmLeaf)" stroke-width="2"/>
    <path d="M10,108 Q20,60 10,20" fill="none" stroke="#3A8A28" stroke-width="2.5"/>
    <path d="M10,112 Q30,95 60,100" fill="none" stroke="url(#trPalmLeaf)" stroke-width="2"/>
    <!-- Frond leaflets (hanging) -->
    <g opacity="0.5">
      <!-- Left frond leaflets -->
      <path d="M-30,70 Q-35,78 -40,75" fill="none" stroke="#3A8A28" stroke-width="1"/>
      <path d="M-50,65 Q-55,73 -60,70" fill="none" stroke="#2A7A18" stroke-width="1"/>
      <path d="M-65,62 Q-70,70 -75,67" fill="none" stroke="#3A8A28" stroke-width="1"/>
      <!-- Right frond leaflets -->
      <path d="M40,50 Q45,58 50,55" fill="none" stroke="#3A8A28" stroke-width="1"/>
      <path d="M60,38 Q65,46 70,43" fill="none" stroke="#2A7A18" stroke-width="1"/>
      <path d="M75,32 Q80,40 85,37" fill="none" stroke="#3A8A28" stroke-width="1"/>
      <!-- Top frond leaflets -->
      <path d="M10,40 Q5,48 2,45" fill="none" stroke="#3A8A28" stroke-width="1"/>
      <path d="M10,28 Q15,36 18,33" fill="none" stroke="#2A7A18" stroke-width="1"/>
    </g>
  </g>

  <!-- ============ PALM TREE (right, shorter) ============ -->
  <g transform="translate(680, 180)">
    <!-- Trunk -->
    <path d="M15,90 Q18,130 16,170 Q14,210 18,270" fill="none" stroke="url(#trPalmTrunk)" stroke-width="11" stroke-linecap="round"/>
    <!-- Trunk rings -->
    <g opacity="0.12">
      <line x1="9" y1="120" x2="23" y2="120" stroke="#5A4020" stroke-width="1"/>
      <line x1="12" y1="150" x2="24" y2="150" stroke="#5A4020" stroke-width="1"/>
      <line x1="10" y1="180" x2="22" y2="180" stroke="#5A4020" stroke-width="1"/>
      <line x1="9" y1="210" x2="21" y2="210" stroke="#5A4020" stroke-width="1"/>
      <line x1="11" y1="240" x2="23" y2="240" stroke="#5A4020" stroke-width="1"/>
    </g>
    <!-- Coconuts -->
    <circle cx="14" cy="88" r="3.5" fill="#8B6E48" opacity="0.5"/>
    <circle cx="18" cy="86" r="3" fill="#7A5E3A" opacity="0.45"/>
    <!-- Palm fronds -->
    <path d="M15,82 Q-15,55 -50,50" fill="none" stroke="url(#trPalmLeaf)" stroke-width="2.5"/>
    <path d="M15,80 Q45,45 75,35" fill="none" stroke="url(#trPalmLeaf)" stroke-width="2.5"/>
    <path d="M15,84 Q-5,70 -30,75" fill="none" stroke="url(#trPalmLeafLight)" stroke-width="2"/>
    <path d="M15,82 Q35,60 55,55" fill="none" stroke="url(#trPalmLeafLight)" stroke-width="2"/>
    <path d="M15,80 Q20,45 15,15" fill="none" stroke="#3A8A28" stroke-width="2"/>
    <!-- Leaflets -->
    <g opacity="0.45">
      <path d="M-20,55 Q-25,62 -30,60" fill="none" stroke="#3A8A28" stroke-width="1"/>
      <path d="M-38,52 Q-43,60 -46,57" fill="none" stroke="#2A7A18" stroke-width="1"/>
      <path d="M50,42 Q55,50 58,47" fill="none" stroke="#3A8A28" stroke-width="1"/>
      <path d="M65,38 Q70,46 73,43" fill="none" stroke="#2A7A18" stroke-width="1"/>
    </g>
  </g>

  <!-- ============ BANANA PLANT (mid-left) ============ -->
  <g filter="url(#trSoftShadow)" transform="translate(250, 310)">
    <!-- Pseudostem -->
    <rect x="-5" y="20" width="10" height="65" rx="3" fill="#5A8A30"/>
    <!-- Large banana leaves -->
    <path d="M0,20 Q-30,0 -60,-20 Q-40,-5 0,15" fill="url(#trBananaLeaf)" opacity="0.7"/>
    <path d="M0,18 Q35,-5 65,-30 Q40,0 0,14" fill="url(#trBananaLeaf)" opacity="0.65"/>
    <path d="M0,25 Q-25,10 -50,5 Q-30,15 0,22" fill="#388A20" opacity="0.6"/>
    <path d="M0,22 Q30,5 55,0 Q35,12 0,20" fill="#4A9A30" opacity="0.55"/>
    <path d="M0,15 Q-10,-10 -20,-35 Q-8,-12 0,12" fill="url(#trBananaLeaf)" opacity="0.5"/>
    <!-- Leaf midribs -->
    <path d="M0,20 Q-30,0 -55,-18" fill="none" stroke="#2A7A18" stroke-width="1" opacity="0.3"/>
    <path d="M0,18 Q35,-5 60,-28" fill="none" stroke="#2A7A18" stroke-width="1" opacity="0.3"/>
  </g>

  <!-- ============ BAMBOO FENCE / TRELLIS ============ -->
  <g opacity="0.6" transform="translate(340, 365)">
    <!-- Horizontal rails -->
    <rect x="0" y="0" width="200" height="3" rx="1" fill="url(#trFenceGrad)"/>
    <rect x="0" y="15" width="200" height="3" rx="1" fill="url(#trFenceGrad)"/>
    <!-- Vertical posts -->
    <rect x="5" y="-8" width="4" height="30" rx="1" fill="url(#trFenceGrad)"/>
    <rect x="45" y="-8" width="4" height="30" rx="1" fill="url(#trFenceGrad)"/>
    <rect x="85" y="-8" width="4" height="30" rx="1" fill="url(#trFenceGrad)"/>
    <rect x="125" y="-8" width="4" height="30" rx="1" fill="url(#trFenceGrad)"/>
    <rect x="165" y="-8" width="4" height="30" rx="1" fill="url(#trFenceGrad)"/>
    <!-- Cross weave hint -->
    <g opacity="0.15">
      <line x1="15" y1="-5" x2="35" y2="22" stroke="#6B5030" stroke-width="1"/>
      <line x1="55" y1="-5" x2="75" y2="22" stroke="#6B5030" stroke-width="1"/>
      <line x1="95" y1="-5" x2="115" y2="22" stroke="#6B5030" stroke-width="1"/>
      <line x1="135" y1="-5" x2="155" y2="22" stroke="#6B5030" stroke-width="1"/>
    </g>
  </g>

  <!-- ============ MID GRASS ============ -->
  <path d="M0,395 Q200,382 400,390 Q600,380 800,394 L800,460 L0,460 Z" fill="url(#trGrassMid)"/>

  <!-- ============ STONE PATH (curving) ============ -->
  <path d="M400,600 Q395,560 390,520 Q385,480 382,440"
        fill="none" stroke="#A09068" stroke-width="45" stroke-linecap="round" opacity="0.12"/>
  <path d="M400,600 Q395,560 390,520 Q385,480 382,440"
        fill="none" stroke="url(#trPathGrad)" stroke-width="38" stroke-linecap="round" opacity="0.55"/>
  <!-- Path stones -->
  <g opacity="0.15">
    <ellipse cx="395" cy="560" rx="14" ry="6" fill="#8A7A60"/>
    <ellipse cx="392" cy="530" rx="12" ry="5" fill="#8A7A60"/>
    <ellipse cx="388" cy="500" rx="13" ry="5.5" fill="#8A7A60"/>
    <ellipse cx="385" cy="470" rx="12" ry="5" fill="#8A7A60"/>
  </g>

  <!-- ============ NEAR GRASS ============ -->
  <path d="M0,450 Q100,440 200,448 Q300,438 400,444 Q500,435 600,442 Q700,436 800,445 L800,600 L0,600 Z"
        fill="url(#trGrassNear)"/>

  <!-- ============ TROPICAL FLOWERS ============ -->
  <!-- Hibiscus cluster (left) -->
  <g transform="translate(120, 440)">
    <line x1="0" y1="8" x2="-5" y2="-15" stroke="#307A22" stroke-width="2"/>
    <line x1="18" y1="8" x2="15" y2="-12" stroke="#307A22" stroke-width="2"/>
    <line x1="35" y1="8" x2="32" y2="-18" stroke="#307A22" stroke-width="2"/>
    <line x1="-12" y1="8" x2="-15" y2="-10" stroke="#307A22" stroke-width="1.5"/>
    <!-- Hibiscus flowers -->
    <g transform="translate(-5, -18)">
      <ellipse cx="-4" cy="0" rx="5" ry="4" fill="url(#trFlowerRed)" opacity="0.8"/>
      <ellipse cx="4" cy="0" rx="5" ry="4" fill="url(#trFlowerRed)" opacity="0.7"/>
      <ellipse cx="0" cy="-4" rx="4" ry="5" fill="#E86050" opacity="0.7"/>
      <ellipse cx="0" cy="4" rx="4" ry="5" fill="#D04838" opacity="0.6"/>
      <circle cx="0" cy="0" r="2" fill="url(#trFlowerYellow)" opacity="0.7"/>
    </g>
    <circle cx="15" cy="-14" r="5" fill="url(#trFlowerOrange)" opacity="0.7"/>
    <circle cx="15" cy="-14" r="1.5" fill="url(#trFlowerYellow)" opacity="0.5"/>
    <circle cx="32" cy="-20" r="5.5" fill="url(#trFlowerPurple)" opacity="0.7"/>
    <circle cx="32" cy="-20" r="1.5" fill="#F0D040" opacity="0.5"/>
    <circle cx="-15" cy="-12" r="4" fill="url(#trFlowerRed)" opacity="0.6"/>
    <!-- Leaves -->
    <ellipse cx="8" cy="-4" rx="8" ry="3" fill="#307A22" transform="rotate(-15, 8, -4)" opacity="0.6"/>
    <ellipse cx="25" cy="-6" rx="7" ry="2.5" fill="#4A9A30" transform="rotate(10, 25, -6)" opacity="0.5"/>
  </g>

  <!-- Bird of Paradise (right) -->
  <g transform="translate(580, 445)">
    <line x1="0" y1="8" x2="2" y2="-20" stroke="#307A22" stroke-width="2"/>
    <line x1="18" y1="8" x2="16" y2="-16" stroke="#307A22" stroke-width="1.5"/>
    <!-- Bird of Paradise flower -->
    <g transform="translate(2, -22)">
      <path d="M-2,0 L-8,-12 L2,-4 Z" fill="url(#trFlowerOrange)" opacity="0.8"/>
      <path d="M0,0 L6,-14 L4,-2 Z" fill="url(#trFlowerOrange)" opacity="0.7"/>
      <path d="M-1,-2 L-4,-16 L3,-6 Z" fill="url(#trFlowerPurple)" opacity="0.6"/>
      <path d="M-3,2 L2,2 L0,6 Z" fill="#307A22" opacity="0.7"/>
    </g>
    <circle cx="16" cy="-18" r="4.5" fill="url(#trFlowerYellow)" opacity="0.6"/>
    <!-- Big tropical leaves -->
    <ellipse cx="10" cy="0" rx="12" ry="4" fill="#307A22" transform="rotate(-10, 10, 0)" opacity="0.6"/>
    <ellipse cx="-8" cy="2" rx="10" ry="3.5" fill="#4A9A30" transform="rotate(15, -8, 2)" opacity="0.5"/>
  </g>

  <!-- Plumeria cluster (mid) -->
  <g transform="translate(450, 455)">
    <line x1="0" y1="5" x2="-2" y2="-14" stroke="#307A22" stroke-width="1.5"/>
    <line x1="15" y1="5" x2="13" y2="-10" stroke="#307A22" stroke-width="1.5"/>
    <circle cx="-2" cy="-16" r="4.5" fill="#F0F0E0" opacity="0.7"/>
    <circle cx="-2" cy="-16" r="1.5" fill="url(#trFlowerYellow)" opacity="0.5"/>
    <circle cx="13" cy="-12" r="4" fill="#F0E8D0" opacity="0.6"/>
    <circle cx="13" cy="-12" r="1.3" fill="url(#trFlowerYellow)" opacity="0.4"/>
  </g>

  <!-- Scattered tropical wildflowers -->
  <g opacity="0.55">
    <circle cx="300" cy="465" r="3.5" fill="#E85040" opacity="0.6"/>
    <circle cx="320" cy="478" r="3" fill="#F0D040" opacity="0.55"/>
    <circle cx="650" cy="460" r="3" fill="#A068C0" opacity="0.5"/>
    <circle cx="200" cy="480" r="2.5" fill="#F09030" opacity="0.5"/>
    <circle cx="500" cy="472" r="3" fill="#E85040" opacity="0.5"/>
    <circle cx="700" cy="475" r="2.5" fill="#F0D040" opacity="0.45"/>
    <circle cx="160" cy="495" r="3" fill="#A068C0" opacity="0.4"/>
  </g>

  <!-- ============ TOUCAN ON FENCE ============ -->
  <g transform="translate(420, 348)">
    <!-- Body -->
    <ellipse cx="0" cy="0" rx="8" ry="6" fill="#1A1A1A" opacity="0.5"/>
    <!-- Head -->
    <circle cx="8" cy="-4" r="4" fill="#1A1A1A" opacity="0.5"/>
    <!-- Beak -->
    <path d="M12,-5 Q20,-6 22,-3 Q20,-1 12,-2 Z" fill="#F09030" opacity="0.6"/>
    <path d="M12,-3 Q20,-2 22,-3" fill="none" stroke="#D07020" stroke-width="0.5" opacity="0.4"/>
    <!-- Eye -->
    <circle cx="9" cy="-5" r="1" fill="#FFFFFF" opacity="0.5"/>
    <!-- Tail feathers -->
    <path d="M-8,0 Q-14,-2 -16,2" fill="none" stroke="#1A1A1A" stroke-width="2" opacity="0.4"/>
    <!-- White breast -->
    <ellipse cx="2" cy="2" rx="4" ry="3" fill="#F0F0E0" opacity="0.3"/>
  </g>

  <!-- ============ FOREGROUND FERN FRONDS ============ -->
  <g opacity="0.5">
    <path d="M10,600 Q5,575 15,555 Q20,545 25,550" fill="none" stroke="#2A7A18" stroke-width="2.5"/>
    <path d="M10,570 Q0,565 -5,560" fill="none" stroke="#3A8A28" stroke-width="1.5"/>
    <path d="M15,560 Q25,555 30,552" fill="none" stroke="#3A8A28" stroke-width="1.5"/>
    <path d="M780,600 Q785,572 775,555 Q770,548 765,552" fill="none" stroke="#2A7A18" stroke-width="2.5"/>
    <path d="M778,565 Q790,560 795,555" fill="none" stroke="#3A8A28" stroke-width="1.5"/>
    <path d="M776,558 Q768,553 764,550" fill="none" stroke="#3A8A28" stroke-width="1.5"/>
  </g>

  <!-- ============ BUTTERFLY ============ -->
  <g transform="translate(340, 400) scale(0.9)">
    <ellipse cx="-6" cy="0" rx="7" ry="9" fill="url(#trFlowerPurple)" opacity="0.45" transform="rotate(-18, -6, 0)"/>
    <ellipse cx="6" cy="0" rx="7" ry="9" fill="url(#trFlowerPurple)" opacity="0.45" transform="rotate(18, 6, 0)"/>
    <ellipse cx="-4" cy="4" rx="4" ry="5" fill="#8858A8" opacity="0.35" transform="rotate(-12, -4, 4)"/>
    <ellipse cx="4" cy="4" rx="4" ry="5" fill="#8858A8" opacity="0.35" transform="rotate(12, 4, 4)"/>
    <line x1="0" y1="-4" x2="0" y2="8" stroke="#3A2818" stroke-width="1"/>
  </g>

  <!-- ============ WARM AMBIENT OVERLAY ============ -->
  <rect width="800" height="600" fill="#FFF8D0" opacity="0.06"/>
</svg>
