<svg xmlns="http://www.w3.org/2000/svg" viewBox="0 0 800 600" width="800" height="600">
  <defs>
    <linearGradient id="nordWallGrad" x1="0" y1="0" x2="0" y2="1">
      <stop offset="0%" stop-color="#F0EDE8"/>
      <stop offset="50%" stop-color="#E8E4DE"/>
      <stop offset="100%" stop-color="#E0DCD4"/>
    </linearGradient>
    <linearGradient id="nordFloorGrad" x1="0" y1="0" x2="0" y2="1">
      <stop offset="0%" stop-color="#D4C4A8"/>
      <stop offset="100%" stop-color="#C4B498"/>
    </linearGradient>
    <linearGradient id="nordFloorShine" x1="0" y1="0" x2="1" y2="0">
      <stop offset="0%" stop-color="#E0D4B8" stop-opacity="0.4"/>
      <stop offset="50%" stop-color="#EAE0C8" stop-opacity="0.7"/>
      <stop offset="100%" stop-color="#E0D4B8" stop-opacity="0.4"/>
    </linearGradient>
    <linearGradient id="nordWindowLight" x1="0.5" y1="0" x2="0.5" y2="1">
      <stop offset="0%" stop-color="#C8D8E4"/>
      <stop offset="40%" stop-color="#D8E4EC"/>
      <stop offset="100%" stop-color="#E8F0F0"/>
    </linearGradient>
    <linearGradient id="nordSunGlow" x1="0.3" y1="0" x2="0.7" y2="1">
      <stop offset="0%" stop-color="#FFF8E7" stop-opacity="0.4"/>
      <stop offset="100%" stop-color="#FFF8E7" stop-opacity="0"/>
    </linearGradient>
    <linearGradient id="brickGrad" x1="0" y1="0" x2="0" y2="1">
      <stop offset="0%" stop-color="#C4A488"/>
      <stop offset="100%" stop-color="#B89478"/>
    </linearGradient>
    <linearGradient id="nordSofaGrad" x1="0" y1="0" x2="0" y2="1">
      <stop offset="0%" stop-color="#B0A898"/>
      <stop offset="100%" stop-color="#9A9488"/>
    </linearGradient>
    <linearGradient id="nordSofaCushion" x1="0" y1="0" x2="0" y2="1">
      <stop offset="0%" stop-color="#C0B8A8"/>
      <stop offset="100%" stop-color="#B0A898"/>
    </linearGradient>
    <linearGradient id="nordPillowLight" x1="0" y1="0" x2="0" y2="1">
      <stop offset="0%" stop-color="#E8E0D4"/>
      <stop offset="100%" stop-color="#DDD4C6"/>
    </linearGradient>
    <linearGradient id="nordPillowDark" x1="0" y1="0" x2="0" y2="1">
      <stop offset="0%" stop-color="#3A3A3A"/>
      <stop offset="100%" stop-color="#2A2A2A"/>
    </linearGradient>
    <linearGradient id="nordTableGrad" x1="0" y1="0" x2="0" y2="1">
      <stop offset="0%" stop-color="#2A2A2A"/>
      <stop offset="100%" stop-color="#1E1E1E"/>
    </linearGradient>
    <linearGradient id="nordWoodShelf" x1="0" y1="0" x2="0" y2="1">
      <stop offset="0%" stop-color="#C4A872"/>
      <stop offset="100%" stop-color="#B09060"/>
    </linearGradient>
    <linearGradient id="nordPlantLeaf" x1="0" y1="0" x2="0" y2="1">
      <stop offset="0%" stop-color="#6B8F6B"/>
      <stop offset="100%" stop-color="#567856"/>
    </linearGradient>
    <linearGradient id="nordPlantDark" x1="0" y1="0" x2="0" y2="1">
      <stop offset="0%" stop-color="#4A6B4A"/>
      <stop offset="100%" stop-color="#3D5E3D"/>
    </linearGradient>
    <linearGradient id="nordPotGrad" x1="0" y1="0" x2="0" y2="1">
      <stop offset="0%" stop-color="#E0D8CC"/>
      <stop offset="100%" stop-color="#D0C8BC"/>
    </linearGradient>
    <linearGradient id="nordBlackPot" x1="0" y1="0" x2="0" y2="1">
      <stop offset="0%" stop-color="#3A3A3A"/>
      <stop offset="100%" stop-color="#2A2A2A"/>
    </linearGradient>
    <linearGradient id="pendantShade" x1="0" y1="0" x2="0" y2="1">
      <stop offset="0%" stop-color="#2A2A2A"/>
      <stop offset="100%" stop-color="#1E1E1E"/>
    </linearGradient>
    <radialGradient id="nordLampGlow" cx="0.5" cy="0.8" r="0.5">
      <stop offset="0%" stop-color="#FFE8B8" stop-opacity="0.5"/>
      <stop offset="100%" stop-color="#FFE8B8" stop-opacity="0"/>
    </radialGradient>
    <linearGradient id="nordRugGrad" x1="0" y1="0" x2="1" y2="0">
      <stop offset="0%" stop-color="#D4CCC0" stop-opacity="0.5"/>
      <stop offset="50%" stop-color="#E0D8CC" stop-opacity="0.6"/>
      <stop offset="100%" stop-color="#D4CCC0" stop-opacity="0.5"/>
    </linearGradient>
    <filter id="nordSoftShadow" x="-20%" y="-20%" width="140%" height="140%">
      <feGaussianBlur in="SourceAlpha" stdDeviation="4" result="blur"/>
      <feOffset dx="2" dy="3" result="offset"/>
      <feFlood flood-color="#2A2A2A" flood-opacity="0.12" result="color"/>
      <feComposite in="color" in2="offset" operator="in" result="shadow"/>
      <feMerge>
        <feMergeNode in="shadow"/>
        <feMergeNode in="SourceGraphic"/>
      </feMerge>
    </filter>
    <filter id="nordSubtleShadow" x="-10%" y="-10%" width="120%" height="120%">
      <feGaussianBlur in="SourceAlpha" stdDeviation="2" result="blur"/>
      <feOffset dx="1" dy="2" result="offset"/>
      <feFlood flood-color="#2A2A2A" flood-opacity="0.08" result="color"/>
      <feComposite in="color" in2="offset" operator="in" result="shadow"/>
      <feMerge>
        <feMergeNode in="shadow"/>
        <feMergeNode in="SourceGraphic"/>
      </feMerge>
    </filter>
    <filter id="nordLampBlur" x="-50%" y="-50%" width="200%" height="200%">
      <feGaussianBlur stdDeviation="18"/>
    </filter>
  </defs>

  <!-- ============ WALL ============ -->
  <rect width="800" height="600" fill="url(#nordWallGrad)"/>

  <!-- Exposed brick accent wall (left portion) -->
  <g opacity="0.15">
    <rect x="0" y="0" width="280" height="378" fill="url(#brickGrad)"/>
    <!-- Brick pattern -->
    <g stroke="#A08468" stroke-width="0.5" fill="none">
      <!-- Row 1 -->
      <rect x="5" y="5" width="55" height="22" rx="1"/><rect x="64" y="5" width="55" height="22" rx="1"/>
      <rect x="123" y="5" width="55" height="22" rx="1"/><rect x="182" y="5" width="55" height="22" rx="1"/>
      <rect x="241" y="5" width="35" height="22" rx="1"/>
      <!-- Row 2 (offset) -->
      <rect x="5" y="31" width="30" height="22" rx="1"/><rect x="39" y="31" width="55" height="22" rx="1"/>
      <rect x="98" y="31" width="55" height="22" rx="1"/><rect x="157" y="31" width="55" height="22" rx="1"/>
      <rect x="216" y="31" width="55" height="22" rx="1"/>
      <!-- Row 3 -->
      <rect x="5" y="57" width="55" height="22" rx="1"/><rect x="64" y="57" width="55" height="22" rx="1"/>
      <rect x="123" y="57" width="55" height="22" rx="1"/><rect x="182" y="57" width="55" height="22" rx="1"/>
      <rect x="241" y="57" width="35" height="22" rx="1"/>
      <!-- Row 4 (offset) -->
      <rect x="5" y="83" width="30" height="22" rx="1"/><rect x="39" y="83" width="55" height="22" rx="1"/>
      <rect x="98" y="83" width="55" height="22" rx="1"/><rect x="157" y="83" width="55" height="22" rx="1"/>
      <rect x="216" y="83" width="55" height="22" rx="1"/>
      <!-- More rows -->
      <rect x="5" y="109" width="55" height="22" rx="1"/><rect x="64" y="109" width="55" height="22" rx="1"/>
      <rect x="123" y="109" width="55" height="22" rx="1"/><rect x="182" y="109" width="55" height="22" rx="1"/>
      <rect x="5" y="135" width="30" height="22" rx="1"/><rect x="39" y="135" width="55" height="22" rx="1"/>
      <rect x="98" y="135" width="55" height="22" rx="1"/><rect x="157" y="135" width="55" height="22" rx="1"/>
      <rect x="216" y="135" width="55" height="22" rx="1"/>
      <rect x="5" y="161" width="55" height="22" rx="1"/><rect x="64" y="161" width="55" height="22" rx="1"/>
      <rect x="123" y="161" width="55" height="22" rx="1"/><rect x="182" y="161" width="55" height="22" rx="1"/>
      <rect x="5" y="187" width="30" height="22" rx="1"/><rect x="39" y="187" width="55" height="22" rx="1"/>
      <rect x="98" y="187" width="55" height="22" rx="1"/><rect x="157" y="187" width="55" height="22" rx="1"/>
      <rect x="216" y="187" width="55" height="22" rx="1"/>
      <rect x="5" y="213" width="55" height="22" rx="1"/><rect x="64" y="213" width="55" height="22" rx="1"/>
      <rect x="123" y="213" width="55" height="22" rx="1"/><rect x="182" y="213" width="55" height="22" rx="1"/>
      <rect x="5" y="239" width="30" height="22" rx="1"/><rect x="39" y="239" width="55" height="22" rx="1"/>
      <rect x="98" y="239" width="55" height="22" rx="1"/><rect x="157" y="239" width="55" height="22" rx="1"/>
      <rect x="216" y="239" width="55" height="22" rx="1"/>
      <rect x="5" y="265" width="55" height="22" rx="1"/><rect x="64" y="265" width="55" height="22" rx="1"/>
      <rect x="123" y="265" width="55" height="22" rx="1"/><rect x="182" y="265" width="55" height="22" rx="1"/>
      <rect x="5" y="291" width="30" height="22" rx="1"/><rect x="39" y="291" width="55" height="22" rx="1"/>
      <rect x="98" y="291" width="55" height="22" rx="1"/><rect x="157" y="291" width="55" height="22" rx="1"/>
      <rect x="216" y="291" width="55" height="22" rx="1"/>
      <rect x="5" y="317" width="55" height="22" rx="1"/><rect x="64" y="317" width="55" height="22" rx="1"/>
      <rect x="123" y="317" width="55" height="22" rx="1"/><rect x="182" y="317" width="55" height="22" rx="1"/>
      <rect x="5" y="343" width="30" height="22" rx="1"/><rect x="39" y="343" width="55" height="22" rx="1"/>
      <rect x="98" y="343" width="55" height="22" rx="1"/><rect x="157" y="343" width="55" height="22" rx="1"/>
      <rect x="216" y="343" width="55" height="22" rx="1"/>
    </g>
  </g>

  <!-- Light wash -->
  <rect x="200" y="0" width="400" height="380" fill="url(#nordSunGlow)" opacity="0.3"/>

  <!-- ============ FLOOR (wide plank) ============ -->
  <rect x="0" y="378" width="800" height="222" fill="url(#nordFloorGrad)"/>
  <!-- Wide plank lines -->
  <g opacity="0.15">
    <line x1="0" y1="378" x2="0" y2="600" stroke="#A09070" stroke-width="0.5"/>
    <line x1="130" y1="378" x2="130" y2="600" stroke="#A09070" stroke-width="0.5"/>
    <line x1="270" y1="378" x2="270" y2="600" stroke="#A09070" stroke-width="0.5"/>
    <line x1="400" y1="378" x2="400" y2="600" stroke="#A09070" stroke-width="0.5"/>
    <line x1="540" y1="378" x2="540" y2="600" stroke="#A09070" stroke-width="0.5"/>
    <line x1="680" y1="378" x2="680" y2="600" stroke="#A09070" stroke-width="0.5"/>
  </g>
  <rect x="200" y="378" width="300" height="222" fill="url(#nordFloorShine)" opacity="0.2"/>

  <!-- ============ RUG (geometric, flat-weave) ============ -->
  <g transform="translate(310, 440)">
    <rect x="0" y="0" width="220" height="120" rx="2" fill="url(#nordRugGrad)" opacity="0.6"/>
    <!-- Geometric pattern -->
    <rect x="10" y="10" width="200" height="100" rx="1" fill="none" stroke="#B0A898" stroke-width="1" opacity="0.4"/>
    <line x1="60" y1="10" x2="60" y2="110" stroke="#B0A898" stroke-width="0.5" opacity="0.3"/>
    <line x1="110" y1="10" x2="110" y2="110" stroke="#B0A898" stroke-width="0.5" opacity="0.3"/>
    <line x1="160" y1="10" x2="160" y2="110" stroke="#B0A898" stroke-width="0.5" opacity="0.3"/>
    <!-- Diamond pattern -->
    <polygon points="110,20 130,60 110,100 90,60" fill="none" stroke="#9A9488" stroke-width="0.8" opacity="0.25"/>
    <polygon points="60,35 75,60 60,85 45,60" fill="none" stroke="#9A9488" stroke-width="0.6" opacity="0.2"/>
    <polygon points="160,35 175,60 160,85 145,60" fill="none" stroke="#9A9488" stroke-width="0.6" opacity="0.2"/>
  </g>

  <!-- ============ LARGE WINDOW (industrial style) ============ -->
  <g filter="url(#nordSoftShadow)">
    <!-- Window frame (black metal) -->
    <rect x="310" y="30" width="240" height="310" rx="2" fill="#2A2A2A"/>
    <!-- Glass panes (2x3 grid) -->
    <rect x="318" y="38" width="108" height="95" rx="1" fill="url(#nordWindowLight)"/>
    <rect x="434" y="38" width="108" height="95" rx="1" fill="url(#nordWindowLight)"/>
    <rect x="318" y="141" width="108" height="95" rx="1" fill="url(#nordWindowLight)"/>
    <rect x="434" y="141" width="108" height="95" rx="1" fill="url(#nordWindowLight)"/>
    <rect x="318" y="244" width="108" height="88" rx="1" fill="url(#nordWindowLight)"/>
    <rect x="434" y="244" width="108" height="88" rx="1" fill="url(#nordWindowLight)"/>
    <!-- Outside: winter sky and trees -->
    <g opacity="0.15">
      <ellipse cx="380" cy="80" rx="40" ry="30" fill="#8BAD8B"/>
      <ellipse cx="500" cy="70" rx="35" ry="35" fill="#7A9E7A"/>
      <rect x="375" y="80" width="6" height="50" fill="#6B5840"/>
      <rect x="497" y="70" width="5" height="60" fill="#6B5840"/>
    </g>
    <!-- Window sill -->
    <rect x="304" y="332" width="252" height="12" rx="2" fill="#2A2A2A"/>
  </g>

  <!-- Light rays from window -->
  <polygon points="434,200 600,378 310,378 318,200" fill="#FFF8E0" opacity="0.04"/>

  <!-- ============ PENDANT LIGHTS (industrial) ============ -->
  <!-- Left pendant -->
  <g transform="translate(200, 0)">
    <line x1="0" y1="0" x2="0" y2="60" stroke="#2A2A2A" stroke-width="1.5"/>
    <path d="M-20,60 L-12,90 L12,90 L20,60 Z" fill="url(#pendantShade)"/>
    <ellipse cx="0" cy="92" rx="10" ry="3" fill="#FFE8B8" opacity="0.5"/>
    <ellipse cx="0" cy="100" rx="35" ry="40" fill="url(#nordLampGlow)" filter="url(#nordLampBlur)" opacity="0.35"/>
  </g>
  <!-- Right pendant -->
  <g transform="translate(620, 0)">
    <line x1="0" y1="0" x2="0" y2="50" stroke="#2A2A2A" stroke-width="1.5"/>
    <path d="M-20,50 L-12,80 L12,80 L20,50 Z" fill="url(#pendantShade)"/>
    <ellipse cx="0" cy="82" rx="10" ry="3" fill="#FFE8B8" opacity="0.5"/>
    <ellipse cx="0" cy="90" rx="35" ry="40" fill="url(#nordLampGlow)" filter="url(#nordLampBlur)" opacity="0.3"/>
  </g>

  <!-- ============ WALL ART (minimalist prints) ============ -->
  <!-- Print 1 (left wall, on brick) -->
  <g filter="url(#nordSubtleShadow)" transform="translate(80, 80)">
    <rect x="0" y="0" width="70" height="90" rx="1" fill="#F8F4F0"/>
    <rect x="1" y="1" width="68" height="88" fill="#F0ECE4"/>
    <!-- Abstract geometric art -->
    <circle cx="35" cy="35" r="18" fill="none" stroke="#2A2A2A" stroke-width="1.5" opacity="0.3"/>
    <line x1="15" y1="55" x2="55" y2="55" stroke="#2A2A2A" stroke-width="1" opacity="0.2"/>
    <line x1="25" y1="65" x2="45" y2="65" stroke="#2A2A2A" stroke-width="0.8" opacity="0.15"/>
  </g>
  <!-- Print 2 -->
  <g filter="url(#nordSubtleShadow)" transform="translate(170, 70)">
    <rect x="0" y="0" width="55" height="75" rx="1" fill="#F8F4F0"/>
    <rect x="1" y="1" width="53" height="73" fill="#F0ECE4"/>
    <!-- Botanical line art -->
    <path d="M27,60 Q27,40 20,25 Q15,15 22,10" fill="none" stroke="#6B8F6B" stroke-width="1" opacity="0.4"/>
    <ellipse cx="22" cy="10" rx="6" ry="8" fill="none" stroke="#6B8F6B" stroke-width="0.8" opacity="0.3"/>
    <path d="M27,45 Q35,35 32,25" fill="none" stroke="#6B8F6B" stroke-width="0.8" opacity="0.3"/>
  </g>

  <!-- ============ FLOATING SHELVES (right side) ============ -->
  <g transform="translate(600, 100)">
    <!-- Shelf 1 -->
    <rect x="0" y="0" width="130" height="5" rx="1" fill="url(#nordWoodShelf)"/>
    <!-- Items on shelf -->
    <rect x="10" y="-30" width="14" height="30" rx="1" fill="#2A2A2A"/>
    <rect x="26" y="-25" width="10" height="25" rx="1" fill="#8B7A60"/>
    <rect x="38" y="-28" width="12" height="28" rx="1" fill="#D4CCC0"/>
    <!-- Small white vase -->
    <path d="M80,-22 Q78,-10 76,0 L88,0 Q86,-10 84,-22 Q82,-26 80,-22Z" fill="#F0ECE4"/>
    <ellipse cx="80" cy="-24" rx="5" ry="2" fill="#E8E4DC"/>
    <!-- Candle -->
    <rect x="108" y="-18" width="10" height="18" rx="2" fill="#F0ECE4"/>
    <ellipse cx="113" cy="-20" rx="2" ry="3" fill="#FFD86B" opacity="0.6"/>

    <!-- Shelf 2 -->
    <rect x="0" y="70" width="130" height="5" rx="1" fill="url(#nordWoodShelf)"/>
    <rect x="8" y="40" width="12" height="30" rx="1" fill="#5A5A5A"/>
    <rect x="22" y="45" width="10" height="25" rx="1" fill="#A09488"/>
    <!-- Small framed photo -->
    <rect x="55" y="48" width="20" height="22" rx="1" fill="#2A2A2A"/>
    <rect x="57" y="50" width="16" height="18" fill="#D4CCC0"/>
    <!-- Clock -->
    <circle cx="105" cy="58" r="12" fill="#F0ECE4" stroke="#2A2A2A" stroke-width="1"/>
    <line x1="105" y1="58" x2="105" y2="50" stroke="#2A2A2A" stroke-width="1"/>
    <line x1="105" y1="58" x2="111" y2="58" stroke="#2A2A2A" stroke-width="0.8"/>
  </g>

  <!-- ============ SOFA (low-profile Scandinavian) ============ -->
  <g filter="url(#nordSoftShadow)" transform="translate(50, 280)">
    <!-- Sofa shadow -->
    <ellipse cx="130" cy="105" rx="145" ry="10" fill="#2A2A2A" opacity="0.08"/>
    <!-- Sofa back -->
    <rect x="0" y="0" width="260" height="68" rx="8" fill="url(#nordSofaGrad)"/>
    <!-- Sofa arms (low) -->
    <rect x="-10" y="20" width="20" height="78" rx="6" fill="#9A9488"/>
    <rect x="250" y="20" width="20" height="78" rx="6" fill="#9A9488"/>
    <!-- Seat cushions -->
    <rect x="10" y="38" width="118" height="55" rx="6" fill="url(#nordSofaCushion)"/>
    <rect x="132" y="38" width="118" height="55" rx="6" fill="url(#nordSofaCushion)"/>
    <!-- Cushion highlights -->
    <rect x="14" y="40" width="110" height="18" rx="5" fill="#CCC4B4" opacity="0.3"/>
    <rect x="136" y="40" width="110" height="18" rx="5" fill="#CCC4B4" opacity="0.3"/>
    <!-- Seam -->
    <line x1="130" y1="44" x2="130" y2="88" stroke="#9A9488" stroke-width="1" opacity="0.3"/>
    <!-- Pillows -->
    <rect x="18" y="8" width="50" height="38" rx="8" fill="url(#nordPillowLight)" transform="rotate(-5, 43, 27)"/>
    <rect x="200" y="6" width="45" height="36" rx="8" fill="url(#nordPillowDark)" transform="rotate(5, 222, 24)"/>
    <!-- Throw blanket draped over arm -->
    <path d="M245,25 Q260,30 265,55 Q268,75 260,90 Q255,80 250,60 Q248,45 245,25Z" fill="#C9B898" opacity="0.4"/>
    <!-- Legs (tapered wood) -->
    <rect x="15" y="93" width="4" height="14" rx="1" fill="#B09060" transform="skewX(-2)"/>
    <rect x="241" y="93" width="4" height="14" rx="1" fill="#B09060" transform="skewX(2)"/>
  </g>

  <!-- ============ COFFEE TABLE (hairpin legs) ============ -->
  <g filter="url(#nordSubtleShadow)" transform="translate(340, 440)">
    <!-- Table shadow -->
    <ellipse cx="55" cy="32" rx="65" ry="5" fill="#2A2A2A" opacity="0.06"/>
    <!-- Table top (round) -->
    <ellipse cx="55" cy="0" rx="55" ry="12" fill="url(#nordTableGrad)"/>
    <!-- Hairpin legs -->
    <path d="M20,8 Q15,20 18,30" fill="none" stroke="#2A2A2A" stroke-width="2"/>
    <path d="M24,8 Q20,20 22,30" fill="none" stroke="#2A2A2A" stroke-width="1.5"/>
    <path d="M86,8 Q91,20 88,30" fill="none" stroke="#2A2A2A" stroke-width="2"/>
    <path d="M82,8 Q86,20 84,30" fill="none" stroke="#2A2A2A" stroke-width="1.5"/>
    <!-- Items on table -->
    <!-- Book stack -->
    <rect x="25" y="-12" width="22" height="3" rx="0.5" fill="#E8E0D4"/>
    <rect x="24" y="-15" width="24" height="3" rx="0.5" fill="#C4B498"/>
    <!-- Small succulent -->
    <ellipse cx="70" cy="-8" rx="7" ry="4" fill="#6B8F6B" opacity="0.6"/>
    <ellipse cx="68" cy="-10" rx="5" ry="3" fill="#7AA07A" opacity="0.5"/>
    <rect x="65" y="-5" width="10" height="6" rx="2" fill="#E0D8CC"/>
  </g>

  <!-- ============ LARGE FIDDLE LEAF FIG (left corner) ============ -->
  <g filter="url(#nordSoftShadow)" transform="translate(35, 310)">
    <!-- Shadow -->
    <ellipse cx="0" cy="70" rx="18" ry="4" fill="#2A2A2A" opacity="0.08"/>
    <!-- White ceramic pot -->
    <path d="M-16,35 L-14,66 Q0,70 14,66 L16,35 Z" fill="url(#nordPotGrad)"/>
    <ellipse cx="0" cy="35" rx="16" ry="5" fill="#E8E0D8"/>
    <ellipse cx="0" cy="35" rx="12" ry="3" fill="#5A4830"/>
    <!-- Trunk -->
    <path d="M0,30 Q-2,10 2,-10 Q4,-25 0,-40" fill="none" stroke="#6B5840" stroke-width="3"/>
    <!-- Branches -->
    <path d="M0,-10 Q-10,-20 -18,-18" fill="none" stroke="#6B5840" stroke-width="2"/>
    <path d="M2,-25 Q12,-35 18,-30" fill="none" stroke="#6B5840" stroke-width="2"/>
    <path d="M0,-38 Q-8,-48 -5,-55" fill="none" stroke="#6B5840" stroke-width="1.5"/>
    <!-- Large fiddle-shaped leaves -->
    <ellipse cx="-20" cy="-20" rx="12" ry="8" fill="url(#nordPlantLeaf)" transform="rotate(-20, -20, -20)"/>
    <ellipse cx="20" cy="-32" rx="12" ry="8" fill="url(#nordPlantLeaf)" transform="rotate(15, 20, -32)"/>
    <ellipse cx="-6" cy="-56" rx="10" ry="7" fill="url(#nordPlantDark)" transform="rotate(-10, -6, -56)"/>
    <ellipse cx="8" cy="-45" rx="11" ry="7" fill="#6B8F6B" transform="rotate(10, 8, -45)" opacity="0.8"/>
    <ellipse cx="-14" cy="-40" rx="10" ry="6" fill="#567856" transform="rotate(-25, -14, -40)" opacity="0.7"/>
    <!-- Leaf veins (subtle) -->
    <line x1="-20" y1="-20" x2="-20" y2="-12" stroke="#4A6B4A" stroke-width="0.5" opacity="0.3" transform="rotate(-20, -20, -20)"/>
    <line x1="20" y1="-32" x2="20" y2="-24" stroke="#4A6B4A" stroke-width="0.5" opacity="0.3" transform="rotate(15, 20, -32)"/>
  </g>

  <!-- ============ TRAILING PLANT ON SHELF ============ -->
  <g transform="translate(660, 105)">
    <!-- Black pot -->
    <rect x="-10" y="-12" width="20" height="12" rx="3" fill="url(#nordBlackPot)"/>
    <!-- Plant top -->
    <ellipse cx="0" cy="-14" rx="10" ry="6" fill="url(#nordPlantLeaf)" opacity="0.7"/>
    <!-- Trailing vines -->
    <path d="M-3,0 Q-10,15 -8,30 Q-5,40 -12,55" fill="none" stroke="#567856" stroke-width="1.2"/>
    <path d="M4,0 Q10,18 7,35 Q4,48 8,60" fill="none" stroke="#6B8F6B" stroke-width="1.2"/>
    <!-- Small leaves on vines -->
    <ellipse cx="-9" cy="20" rx="4" ry="2.5" fill="#6B8F6B" transform="rotate(-15, -9, 20)" opacity="0.6"/>
    <ellipse cx="-10" cy="40" rx="3.5" ry="2" fill="#567856" transform="rotate(10, -10, 40)" opacity="0.5"/>
    <ellipse cx="8" cy="25" rx="4" ry="2.5" fill="#567856" transform="rotate(20, 8, 25)" opacity="0.6"/>
    <ellipse cx="7" cy="45" rx="3.5" ry="2" fill="#6B8F6B" transform="rotate(-10, 7, 45)" opacity="0.5"/>
  </g>

  <!-- ============ SNAKE PLANT (near window) ============ -->
  <g filter="url(#nordSubtleShadow)" transform="translate(560, 315)">
    <!-- Shadow -->
    <ellipse cx="0" cy="63" rx="14" ry="3" fill="#2A2A2A" opacity="0.06"/>
    <!-- Pot -->
    <path d="M-12,35 L-10,60 Q0,63 10,60 L12,35 Z" fill="url(#nordBlackPot)"/>
    <ellipse cx="0" cy="35" rx="12" ry="4" fill="#3A3A3A"/>
    <ellipse cx="0" cy="35" rx="9" ry="2.5" fill="#4A3828"/>
    <!-- Tall pointed leaves -->
    <path d="M0,30 Q-2,10 -4,-15 Q-3,-25 -1,-30" fill="url(#nordPlantLeaf)" opacity="0.9"/>
    <path d="M2,30 Q5,15 7,-5 Q8,-15 6,-22" fill="#567856" opacity="0.8"/>
    <path d="M-3,30 Q-6,12 -10,-8 Q-11,-18 -8,-25" fill="url(#nordPlantDark)" opacity="0.85"/>
    <path d="M3,32 Q0,18 -2,0 Q-3,-8 -1,-15" fill="#6B8F6B" opacity="0.7"/>
    <!-- Yellow edges -->
    <path d="M-4,-15 Q-3,-25 -1,-30" fill="none" stroke="#C4B878" stroke-width="0.5" opacity="0.4"/>
    <path d="M7,-5 Q8,-15 6,-22" fill="none" stroke="#C4B878" stroke-width="0.5" opacity="0.4"/>
  </g>

  <!-- ============ AMBIENT OVERLAY ============ -->
  <rect width="800" height="600" fill="url(#nordSunGlow)" opacity="0.1"/>
</svg>
